<?xml version="1.0" encoding="UTF-8"?>
<svg width="150px" height="57px" viewBox="0 0 150 57" version="1.1" xmlns="http://www.w3.org/2000/svg" xmlns:xlink="http://www.w3.org/1999/xlink">
    <!-- Generator: Sketch 58 (84663) - https://sketch.com -->
    <title>Group 32</title>
    <desc>Created with Sketch.</desc>
    <defs>
        <polygon id="path-1" points="0.000193548387 0.255967742 149.539839 0.255967742 149.539839 56.6128548 0.000193548387 56.6128548"></polygon>
    </defs>
    <g id="Symbols" stroke="none" stroke-width="1" fill="none" fill-rule="evenodd">
        <g id="Bars/Header/D_Visitor-Aviso" transform="translate(-77.000000, -92.000000)">
            <g id="Group-32" transform="translate(77.000000, 92.000000)">
                <g id="Group-3" transform="translate(0.000000, 0.227903)">
                    <mask id="mask-2" fill="white">
                        <use xlink:href="#path-1"></use>
                    </mask>
                    <g id="Clip-2"></g>
                    <path d="M53.6097097,7.22995161 C54.6829355,7.22995161 55.6763226,7.5285 56.5027742,8.05737097 C57.7574516,7.47043548 59.2390645,7.22269355 60.8706774,7.22269355 L64.8311613,7.22269355 L64.8311613,8.97817742 C66.6519677,7.60301613 68.961,6.82591935 71.5893871,6.82591935 C74.9368065,6.82591935 77.6745484,8.14833871 79.4547097,10.4162419 L79.4547097,8.48414516 C79.0105161,7.68769355 78.7637419,6.75672581 78.7637419,5.73769355 C78.7637419,2.56156452 81.2140645,0.255919355 84.5890645,0.255919355 C87.9650323,0.255919355 90.4143871,2.56156452 90.4143871,5.73769355 C90.4143871,6.26414516 90.3476129,6.76640323 90.2227742,7.23962903 L92.5400323,7.23962903 C93.6137419,7.23962903 94.6076129,7.66930645 95.4340645,8.19672581 C96.6887419,7.60979032 98.1703548,7.22995161 99.8029355,7.22995161 L108.100355,7.23140323 C114.890516,7.23140323 118.631323,10.7747903 118.631323,17.2083387 L118.631323,20.3104355 L120.565839,20.3104355 L120.565839,26.3897903 L127.410677,26.3897903 L127.410677,30.7475323 L129.105677,30.7475323 L132.391161,30.7475323 L137.074548,30.7475323 C143.864226,30.7475323 147.603581,34.3141452 147.603581,40.7907581 L147.603581,44.0235 L149.540032,44.0235 L149.540032,53.2562419 L142.815677,53.2562419 C141.774387,53.2562419 140.826,52.9843065 140.023742,52.4810806 C138.903097,53.1333387 137.514387,53.2915645 135.761806,53.2915645 C135.451645,53.2915645 135.148258,53.2794677 134.851161,53.2562419 L126.217452,53.2562419 C122.897129,53.2562419 120.291484,52.1447903 118.656484,50.1705968 C117.780194,51.4939839 116.309226,52.4481774 114.485516,53.0268871 C114.469065,53.0322097 114.452613,53.0380161 114.436645,53.0433387 C114.332613,53.0757581 114.226161,53.1057581 114.120194,53.1357581 C113.944548,53.1855968 113.766484,53.2305968 113.585516,53.2722097 C113.535677,53.2838226 113.485839,53.2964032 113.435516,53.3070484 C113.360516,53.3230161 113.284548,53.3375323 113.209065,53.3520484 C111.201,53.747371 108.887129,53.6917258 106.525839,53.0868871 C105.89729,52.9257581 105.291,52.7307581 104.708419,52.5091452 C104.644065,52.4849516 104.581161,52.4597903 104.517774,52.4351129 C104.437935,52.4036613 104.358581,52.3717258 104.27971,52.3397903 C104.227935,52.3180161 104.177613,52.2962419 104.126806,52.2739839 C103.170677,51.8665645 102.288097,51.4238226 101.498419,50.8794677 C99.4763226,52.5841452 96.8440645,53.604629 93.924871,53.604629 C90.6979355,53.604629 87.8576129,52.4530161 85.7818065,50.5291452 L85.7818065,52.9262419 L84.5740645,53.7333387 C81.6311613,55.6978548 78.669871,56.6128548 75.2556774,56.6128548 C66.5711613,56.6128548 60.5068065,50.6622097 60.5068065,42.1402742 C60.5068065,36.7485 62.8463226,32.3825323 66.6863226,29.8881774 L29.1490645,29.8881774 L29.1490645,29.8867258 C23.192129,29.8659194 18.6906774,26.0883387 17.7495484,20.6230161 L13.176,20.6230161 L13.176,29.8678548 L2.34987097,29.8678548 L2.34987097,10.8033387 L0.000193548387,10.8033387 L0.000193548387,0.947370968 L22.5776129,0.947370968 L22.5776129,8.57995161 C24.3055161,7.45930645 26.3953548,6.82591935 28.7150323,6.82591935 C31.8626129,6.82591935 34.4668065,8.01140323 36.2358387,10.0615645 L36.2358387,7.23962903 L40.8863226,7.23962903 C41.9590645,7.23962903 42.9529355,7.53769355 43.7784194,8.06704839 C45.0326129,7.4801129 46.5142258,7.23430645 48.1468065,7.23430645 L53.6097097,7.22995161 Z" id="Fill-1" fill="#DA0812" mask="url(#mask-2)"></path>
                </g>
                <path d="M84.5892581,8.80170968 C86.4565161,8.80170968 87.7000645,7.6946129 87.7000645,5.96525806 C87.7000645,4.30606452 86.4565161,3.19945161 84.5892581,3.19945161 C82.722,3.19945161 81.4784516,4.30606452 81.4784516,5.96525806 C81.4784516,7.6946129 82.722,8.80170968 84.5892581,8.80170968" id="Fill-4" fill="#FFFFFF"></path>
                <path d="M43.3066452,11.981371 C43.0308387,10.8762097 42.0616452,10.1828226 40.8863226,10.1828226 L38.949871,10.1828226 L38.949871,27.0578226 L44.1364839,27.0578226 L44.1364839,17.8599194 C44.1364839,15.2320161 45.9345484,14.0557258 48.216,14.0557258 L49.3927742,14.0557258 L49.3927742,10.1141129 L48.1468065,10.1141129 C45.9345484,10.1141129 44.2739032,10.8055645 43.3066452,11.981371" id="Fill-6" fill="#FFFFFF"></path>
                <path d="M95.7924677,17.859871 C95.7924677,15.2319677 97.5910161,14.0556774 99.8715,14.0556774 L101.047306,14.0556774 L101.047306,10.1140645 L99.8027903,10.1140645 C97.5910161,10.1140645 95.9294032,10.8055161 94.9631129,11.9813226 C94.6863387,10.8761613 93.7171452,10.1827742 92.5398871,10.1827742 L90.6058548,10.1827742 L90.6058548,27.0577742 L95.7924677,27.0577742 L95.7924677,17.859871 Z" id="Fill-8" fill="#FFFFFF"></path>
                <path d="M25.326871,16.2681774 C25.8112258,14.6075323 26.9163871,13.6422097 28.6457419,13.6422097 C30.1689677,13.6422097 31.2049355,14.6075323 31.3433226,16.2681774 L25.326871,16.2681774 Z M28.7149355,9.76737097 C23.6676774,9.76737097 20.2776774,13.4331774 20.2776774,18.6875323 C20.2776774,23.6689839 23.736871,27.4025323 29.1988065,27.4025323 C31.7575161,27.4025323 33.8333226,26.9157581 35.3550968,25.8125323 L35.3550968,21.8709194 C33.5560645,22.8376935 31.8276774,23.184629 29.6831613,23.184629 C27.3325161,23.184629 25.6733226,21.939629 25.1889677,19.8633387 L35.9076774,19.8633387 C35.9763871,19.3117258 36.0460645,18.482371 36.0460645,17.7894677 C36.0460645,13.0175323 33.2797742,9.76737097 28.7149355,9.76737097 L28.7149355,9.76737097 Z" id="Fill-10" fill="#FFFFFF"></path>
                <path d="M56.0299839,11.981371 C55.7532097,10.8762097 54.7859516,10.1828226 53.6096613,10.1828226 L51.6732097,10.1828226 L51.6732097,27.0578226 L56.8612742,27.0578226 L56.8612742,17.8599194 C56.8612742,15.2320161 58.6578871,14.0557258 60.9412742,14.0557258 L62.1161129,14.0557258 L62.1161129,10.1141129 L60.870629,10.1141129 C58.6578871,10.1141129 56.9996613,10.8055645 56.0299839,11.981371" id="Fill-12" fill="#FFFFFF"></path>
                <path d="M85.1435323,10.1829194 L82.1696613,10.1829194 L82.1696613,27.0579194 L87.3543387,27.0579194 L87.3543387,12.5350161 C87.3543387,11.0829194 86.5254677,10.1829194 85.1435323,10.1829194" id="Fill-14" fill="#FFFFFF"></path>
                <path d="M2.71441935,8.31735484 L4.09829032,8.31735484 C4.78925806,8.31735484 5.06554839,8.59316129 5.06554839,9.2846129 L5.06554839,27.381871 L10.4611935,27.381871 L10.4611935,18.1370323 L18.2728065,18.1370323 L18.2728065,13.709129 L10.4611935,13.709129 L10.4611935,8.31735484 L19.8637742,8.31735484 L19.8637742,3.89090323 L2.71441935,3.89090323 L2.71441935,8.31735484 Z" id="Fill-16" fill="#FFFFFF"></path>
                <path d="M107.824984,23.5982903 C106.787081,23.5982903 106.028371,22.9073226 106.028371,22.0082903 C106.028371,20.5566774 106.993694,20.003129 109.415468,20.003129 L110.93579,20.003129 C110.868048,22.0774839 109.623532,23.5982903 107.824984,23.5982903 M115.916758,22.2845806 L115.916758,17.3065161 C115.916758,12.5350645 113.4945,10.0450645 108.100306,10.0450645 L103.052565,10.0450645 L103.052565,14.055871 L107.478048,14.055871 C109.759016,14.055871 110.868048,14.7473226 110.93579,16.7529677 L109.415468,16.7529677 C104.296597,16.7529677 101.325629,18.2050645 101.325629,22.2153871 C101.325629,25.3963548 103.399016,27.4024839 106.787081,27.4024839 C108.932081,27.4024839 110.175629,26.502 111.349984,25.2594194 C111.83579,26.4352258 112.665145,27.0574839 113.841435,27.0574839 L117.851274,27.0574839 L117.851274,23.2518387 L116.884016,23.2518387 C116.26079,23.2518387 115.916758,22.9073226 115.916758,22.2845806" id="Fill-18" fill="#FFFFFF"></path>
                <path d="M71.5204839,13.6420645 C73.0427419,13.6420645 74.1479032,14.6073871 74.2175806,16.2680323 L68.2693548,16.2680323 C68.7546774,14.6073871 69.791129,13.6420645 71.5204839,13.6420645 M72.0735484,27.4023871 C74.6308065,27.4023871 76.7051613,26.9156129 78.2980645,25.8123871 L78.2980645,21.8707742 C76.4995161,22.8375484 74.7,23.1844839 72.5569355,23.1844839 C70.2053226,23.1844839 68.5475806,21.9394839 68.1304839,19.8631935 L78.7819355,19.8631935 C78.9198387,19.3115806 78.9890323,18.4822258 78.9890323,17.7893226 C78.9890323,13.0173871 76.2227419,9.76722581 71.5896774,9.76722581 C66.5424194,9.76722581 63.221129,13.4330323 63.221129,18.6873871 C63.221129,23.6693226 66.6803226,27.4023871 72.0735484,27.4023871" id="Fill-20" fill="#FFFFFF"></path>
                <path d="M68.8218387,42.368371 C68.8218387,37.8040161 71.7957097,35.3159516 75.6676452,35.3159516 C78.2979677,35.3159516 80.3723226,36.0761129 82.6528065,37.5954677 L82.6528065,32.8254677 C80.5082903,31.4430484 77.8818387,30.5445 74.8402258,30.5445 C67.8545806,30.5445 63.2210323,35.4538548 63.2210323,42.368371 C63.2210323,49.4227258 68.0611935,54.1249839 75.255871,54.1249839 C78.3642581,54.1249839 80.787,53.2249839 83.067,51.7027258 L83.067,46.8635323 C80.5803871,48.5227258 78.2273226,49.2848226 75.6676452,49.2848226 C71.7274839,49.2848226 68.8218387,46.7943387 68.8218387,42.368371" id="Fill-22" fill="#FFFFFF"></path>
                <path d="M124.697613,29.3336129 L119.440355,29.3336129 L119.440355,44.4763548 C119.440355,48.972 122.346,50.7705484 126.217452,50.7705484 L128.775677,50.7705484 L128.775677,46.6218387 L126.909871,46.6218387 C125.596161,46.6218387 124.697613,45.9279677 124.697613,44.0626452 L124.697613,37.6997419 L129.675677,37.6997419 L129.675677,33.6889355 L124.697613,33.6889355 L124.697613,29.3336129 Z" id="Fill-24" fill="#FFFFFF"></path>
                <path d="M136.868081,47.2441935 C135.761952,47.2441935 134.999855,46.6219355 134.999855,45.7229032 C134.999855,44.2001613 136.038726,43.6470968 138.456145,43.6470968 L139.980823,43.6470968 C139.910177,45.7925806 138.663726,47.2441935 136.868081,47.2441935 L136.868081,47.2441935 Z M145.927113,46.9664516 C145.235661,46.9664516 144.887758,46.6219355 144.887758,45.9280645 L144.887758,41.0187097 C144.887758,36.1790323 142.468403,33.6890323 137.074694,33.6890323 L131.818887,33.6890323 L131.818887,37.6998387 L136.520661,37.6998387 C138.735339,37.6998387 139.840984,38.4619355 139.980823,40.3983871 L138.387435,40.3983871 C133.270984,40.3983871 130.36679,41.9191935 130.36679,45.9280645 C130.36679,49.1114516 132.372435,51.1166129 135.761952,51.1166129 C137.904532,51.1166129 139.218242,50.1479032 140.394048,48.9720968 C140.809694,50.1479032 141.639532,50.7706452 142.815823,50.7706452 L146.82421,50.7706452 L146.82421,46.9664516 L145.927113,46.9664516 Z" id="Fill-26" fill="#FFFFFF"></path>
                <path d="M93.9250161,46.8975968 C91.6425968,46.8975968 90.1900161,45.1696935 90.1900161,42.3346935 C90.1900161,39.4275968 91.6425968,37.7708226 93.9250161,37.7708226 C96.1367903,37.7708226 97.5908226,39.4275968 97.5908226,42.3346935 C97.5908226,45.1696935 96.1367903,46.8975968 93.9250161,46.8975968 M93.9250161,33.5529194 C88.806629,33.5529194 84.9356613,37.3546935 84.9356613,42.4034032 C84.9356613,47.3805 88.806629,51.1169516 93.9250161,51.1169516 C99.0419516,51.1169516 102.846145,47.2440484 102.846145,42.2640484 C102.846145,37.2192097 99.0419516,33.5529194 93.9250161,33.5529194" id="Fill-28" fill="#FFFFFF"></path>
                <path d="M104.505919,38.8069355 C104.505919,41.1585484 105.749468,42.4732258 108.793984,43.7177419 C111.144629,44.685 112.04221,45.2385484 112.04221,45.9987097 C112.04221,46.8285484 111.488177,47.0370968 110.3835,47.0370968 C108.307694,47.0370968 106.302048,46.6219355 104.43479,45.6522581 L104.43479,49.6635484 C105.818661,50.4929032 108.378339,51.1166129 110.935597,51.1166129 C114.739306,51.1166129 117.367694,49.0408065 117.367694,45.8593548 C117.367694,42.6798387 114.946403,41.6414516 112.664952,40.6054839 C110.591565,39.6382258 109.690597,39.4277419 109.690597,38.6685484 C109.690597,37.9083871 110.244145,37.6998387 111.557855,37.6998387 L117.367694,37.6998387 L117.367694,33.6890323 L111.144629,33.6890323 C107.200113,33.6890323 104.505919,35.4870968 104.505919,38.8069355" id="Fill-30" fill="#FFFFFF"></path>
            </g>
        </g>
    </g>
</svg>