<svg width="198" height="84" viewBox="0 0 198 84" fill="none" xmlns="http://www.w3.org/2000/svg">
<mask id="mask0_50013_340" style="mask-type:alpha" maskUnits="userSpaceOnUse" x="0" y="0" width="198" height="84">
<path d="M0 0H197.946V83.7302H0V0Z" fill="white"/>
</mask>
<g mask="url(#mask0_50013_340)">
<path fill-rule="evenodd" clip-rule="evenodd" d="M70.9629 10.3614C72.3835 10.3614 73.6985 10.8049 74.7924 11.5907C76.4532 10.7187 78.4145 10.3506 80.5742 10.3506H85.8167V12.9587C88.2269 10.9156 91.2834 9.7611 94.7626 9.7611C99.1936 9.7611 102.817 11.7258 105.174 15.0953V12.2247C104.586 11.0414 104.259 9.6583 104.259 8.14431C104.259 3.42548 107.503 -4.57764e-05 111.97 -4.57764e-05C116.439 -4.57764e-05 119.681 3.42548 119.681 8.14431C119.681 8.92646 119.593 9.67267 119.428 10.3758H122.495C123.916 10.3758 125.232 11.0141 126.326 11.7977C127.987 10.9257 129.948 10.3614 132.109 10.3614L143.092 10.3635C152.08 10.3635 157.032 15.628 157.032 25.1864V29.7952H159.593V38.8274H168.653V45.3018H170.897H175.246H181.445C190.433 45.3018 195.382 50.6007 195.382 60.2231V65.0261H197.946V78.7433H189.045C187.666 78.7433 186.411 78.3393 185.349 77.5916C183.866 78.5607 182.027 78.7958 179.708 78.7958C179.297 78.7958 178.895 78.7778 178.502 78.7433H167.074C162.679 78.7433 159.23 77.092 157.065 74.1589C155.905 76.1251 153.958 77.5427 151.544 78.4025C151.522 78.4104 151.501 78.4191 151.479 78.427C151.342 78.4751 151.201 78.5197 151.061 78.5643C150.828 78.6383 150.592 78.7052 150.353 78.767C150.287 78.7843 150.221 78.803 150.154 78.8188C150.055 78.8425 149.954 78.8641 149.855 78.8856C147.196 79.473 144.134 79.3903 141.008 78.4917C140.176 78.2523 139.373 77.9626 138.602 77.6333C138.517 77.5974 138.434 77.56 138.35 77.5233C138.244 77.4766 138.139 77.4292 138.035 77.3817C137.966 77.3494 137.9 77.317 137.832 77.2839C136.567 76.6786 135.398 76.0208 134.353 75.2121C131.676 77.7447 128.192 79.2609 124.328 79.2609C120.057 79.2609 116.297 77.5499 113.549 74.6916V78.253L111.95 79.4521C108.055 82.3708 104.135 83.7303 99.6156 83.7303C88.1199 83.7303 80.0926 74.8893 80.0926 62.2281C80.0926 54.2175 83.1894 47.7309 88.2724 44.025H38.5843V44.0229C30.6992 43.992 24.7406 38.3796 23.4948 30.2596H17.4408V43.9948H3.11027V15.6704H0V1.02725H29.8857V12.3671C32.1729 10.7021 34.9393 9.7611 38.0098 9.7611C42.1763 9.7611 45.6234 11.5224 47.9651 14.5683V10.3758H54.1209C55.5409 10.3758 56.8565 10.8186 57.9492 11.6051C59.6094 10.733 61.5706 10.3678 63.7316 10.3678L70.9629 10.3614Z" fill="#DA0812"/>
</g>
<path fill-rule="evenodd" clip-rule="evenodd" d="M111.97 12.3579C114.442 12.3579 116.088 10.7131 116.088 8.14377C116.088 5.67869 114.442 4.03458 111.97 4.03458C109.499 4.03458 107.853 5.67869 107.853 8.14377C107.853 10.7131 109.499 12.3579 111.97 12.3579Z" fill="white"/>
<path fill-rule="evenodd" clip-rule="evenodd" d="M57.3247 17.082C56.9596 15.4401 55.6767 14.4099 54.1209 14.4099H51.5576V39.4813H58.4232V25.8159C58.4232 21.9115 60.8033 20.1639 63.8232 20.1639H65.3809V14.3078H63.7316C60.8033 14.3078 58.6051 15.3351 57.3247 17.082Z" fill="white"/>
<path fill-rule="evenodd" clip-rule="evenodd" d="M126.8 25.8158C126.8 21.9115 129.181 20.1638 132.2 20.1638H133.756V14.3077H132.109C129.181 14.3077 126.981 15.335 125.702 17.0819C125.336 15.44 124.053 14.4098 122.495 14.4098H119.935V39.4812H126.8V25.8158Z" fill="white"/>
<path fill-rule="evenodd" clip-rule="evenodd" d="M33.5249 23.451C34.166 20.9837 35.6289 19.5495 37.9181 19.5495C39.9344 19.5495 41.3057 20.9837 41.4889 23.451H33.5249ZM38.0097 13.7926C31.3286 13.7926 26.8413 19.239 26.8413 27.0454C26.8413 34.4465 31.4202 39.9934 38.6502 39.9934C42.0371 39.9934 44.7849 39.2702 46.7992 37.6312V31.775C44.4179 33.2114 42.13 33.7268 39.2913 33.7268C36.1798 33.7268 33.9835 31.8771 33.3423 28.7924H47.5307C47.6217 27.9728 47.7139 26.7406 47.7139 25.7112C47.7139 18.6214 44.0521 13.7926 38.0097 13.7926Z" fill="white"/>
<path fill-rule="evenodd" clip-rule="evenodd" d="M74.1666 17.082C73.8002 15.4401 72.5199 14.4099 70.9628 14.4099H68.3995V39.4813H75.267V25.8159C75.267 21.9115 77.6451 20.1639 80.6677 20.1639H82.2228V14.3078H80.5741C77.6451 14.3078 75.4502 15.3351 74.1666 17.082Z" fill="white"/>
<path fill-rule="evenodd" clip-rule="evenodd" d="M112.704 14.41H108.768V39.4814H115.631V17.9045C115.631 15.7471 114.533 14.41 112.704 14.41Z" fill="white"/>
<path fill-rule="evenodd" clip-rule="evenodd" d="M3.5928 11.6383H5.42463C6.33927 11.6383 6.70499 12.0481 6.70499 13.0754V39.9627H13.8472V26.2275H24.1874V19.649H13.8472V11.6383H26.2934V5.06187H3.5928V11.6383Z" fill="white"/>
<path fill-rule="evenodd" clip-rule="evenodd" d="M142.728 34.3414C141.354 34.3414 140.349 33.3148 140.349 31.9791C140.349 29.8225 141.627 29 144.833 29H146.845C146.756 32.0819 145.108 34.3414 142.728 34.3414ZM153.439 32.3896V24.9936C153.439 17.9046 150.232 14.2052 143.092 14.2052H136.41V20.1641H142.268C145.288 20.1641 146.756 21.1914 146.845 24.1712H144.833C138.057 24.1712 134.124 26.3286 134.124 32.2868C134.124 37.0128 136.869 39.9934 141.354 39.9934C144.193 39.9934 145.839 38.6555 147.394 36.8094C148.037 38.5563 149.135 39.4808 150.692 39.4808H155.999V33.8267H154.719C153.894 33.8267 153.439 33.3148 153.439 32.3896Z" fill="white"/>
<path fill-rule="evenodd" clip-rule="evenodd" d="M94.6714 19.5493C96.6864 19.5493 98.1493 20.9835 98.2415 23.4508H90.3678C91.0103 20.9835 92.3822 19.5493 94.6714 19.5493ZM95.4035 39.9932C98.7885 39.9932 101.534 39.27 103.643 37.6309V31.7748C101.262 33.2112 98.8801 33.7266 96.0433 33.7266C92.9305 33.7266 90.7361 31.8769 90.184 28.7921H104.283C104.466 27.9726 104.557 26.7404 104.557 25.711C104.557 18.6212 100.896 13.7924 94.763 13.7924C88.0819 13.7924 83.6855 19.2388 83.6855 27.0452C83.6855 34.447 88.2644 39.9932 95.4035 39.9932Z" fill="white"/>
<path fill-rule="evenodd" clip-rule="evenodd" d="M91.0991 62.2284C91.0991 55.4471 95.0357 51.7505 100.161 51.7505C103.643 51.7505 106.389 52.8799 109.407 55.1372V48.0504C106.568 45.9965 103.092 44.6615 99.0657 44.6615C89.8188 44.6615 83.6854 51.9554 83.6854 62.2284C83.6854 72.7091 90.0923 79.6954 99.6159 79.6954C103.73 79.6954 106.937 78.3582 109.955 76.0966V68.9069C106.664 71.372 103.549 72.5043 100.161 72.5043C94.9454 72.5043 91.0991 68.8041 91.0991 62.2284Z" fill="white"/>
<path fill-rule="evenodd" clip-rule="evenodd" d="M165.062 42.8625H158.103V65.3603C158.103 72.0395 161.949 74.7117 167.074 74.7117H170.46V68.5479H167.99C166.251 68.5479 165.062 67.517 165.062 64.7456V55.2922H171.651V49.3333H165.062V42.8625Z" fill="white"/>
<path fill-rule="evenodd" clip-rule="evenodd" d="M181.172 69.4725C179.708 69.4725 178.699 68.548 178.699 67.2123C178.699 64.9499 180.074 64.1282 183.274 64.1282H185.292C185.199 67.3158 183.549 69.4725 181.172 69.4725ZM193.163 69.0598C192.248 69.0598 191.788 68.548 191.788 67.5171V60.2232C191.788 53.0328 188.585 49.3334 181.445 49.3334H174.488V55.2923H180.712C183.644 55.2923 185.107 56.4245 185.292 59.3016H183.183C176.41 59.3016 172.566 61.561 172.566 67.5171C172.566 72.2467 175.221 75.2258 179.708 75.2258C182.544 75.2258 184.283 73.7866 185.839 72.0396C186.389 73.7866 187.488 74.7118 189.045 74.7118H194.351V69.0598H193.163Z" fill="white"/>
<path fill-rule="evenodd" clip-rule="evenodd" d="M124.328 68.9575C121.307 68.9575 119.384 66.3904 119.384 62.1784C119.384 57.8593 121.307 55.3978 124.328 55.3978C127.256 55.3978 129.181 57.8593 129.181 62.1784C129.181 66.3904 127.256 68.9575 124.328 68.9575ZM124.328 49.1312C117.553 49.1312 112.429 54.7795 112.429 62.2805C112.429 69.675 117.553 75.2263 124.328 75.2263C131.102 75.2263 136.137 69.4723 136.137 62.0734C136.137 54.5782 131.102 49.1312 124.328 49.1312Z" fill="white"/>
<path fill-rule="evenodd" clip-rule="evenodd" d="M138.334 56.9371C138.334 60.4309 139.98 62.3842 144.01 64.2332C147.122 65.6702 148.31 66.4927 148.31 67.622C148.31 68.8549 147.577 69.1648 146.114 69.1648C143.367 69.1648 140.712 68.548 138.24 67.1073V73.0669C140.072 74.2991 143.46 75.2258 146.845 75.2258C151.88 75.2258 155.359 72.1417 155.359 67.415C155.359 62.6911 152.154 61.1484 149.134 59.6092C146.39 58.1722 145.197 57.8595 145.197 56.7315C145.197 55.6021 145.93 55.2923 147.669 55.2923H155.359V49.3334H147.122C141.9 49.3334 138.334 52.0048 138.334 56.9371Z" fill="white"/>
</svg>
